<?xml version="1.0" encoding="UTF-8"?>
<svg version="1.1" xmlns="http://www.w3.org/2000/svg" width="1024" height="1024">
<path d="M0 0 C337.92 0 675.84 0 1024 0 C1024 337.92 1024 675.84 1024 1024 C686.08 1024 348.16 1024 0 1024 C0 686.08 0 348.16 0 0 Z " fill="#FEFEFE" transform="translate(0,0)"/>
<path d="M0 0 C1.02222656 0.13390137 2.04445313 0.26780273 3.09765625 0.40576172 C60.82174322 8.24870832 117.49313485 32.47668411 162.41113281 69.6875 C163.95632086 70.9639184 165.52091392 72.21673114 167.0859375 73.46875 C175.48570411 80.313052 183.13952336 87.92805287 190.8125 95.5625 C191.61646713 96.35856659 191.61646713 96.35856659 192.43667603 97.17071533 C199.4265622 104.10746836 205.93117034 111.22556586 212 119 C212.62962646 119.80123291 213.25925293 120.60246582 213.90795898 121.42797852 C242.7277729 158.48202498 262.83809448 199.68816734 275 245 C275.20463867 245.75265137 275.40927734 246.50530273 275.62011719 247.28076172 C281.97495761 271.01991691 284.18723761 295.28957123 284.18530273 319.77734375 C284.18747055 322.83347915 284.20562604 325.88924152 284.22460938 328.9453125 C284.27762532 347.03971783 283.11844099 364.93563836 279.8125 382.75 C279.49212769 384.4983313 279.49212769 384.4983313 279.1652832 386.28198242 C267.89220593 445.54056552 240.59524858 499.67068341 201 545 C200.29875 545.81339844 199.5975 546.62679687 198.875 547.46484375 C194.09646659 552.9040456 189.04287284 558.05745501 183.9375 563.1875 C183.27661377 563.85305908 182.61572754 564.51861816 181.93481445 565.2043457 C121.85477135 625.09079838 36.40739568 657.32003262 -47.79321289 657.24658203 C-80.10287067 657.03638294 -112.21519093 651.74819793 -143 642 C-144.49081761 641.54665196 -145.98170195 641.09352329 -147.47265625 640.640625 C-165.67693178 634.97205896 -183.16196789 626.89926747 -200 618 C-200.69867188 617.63471191 -201.39734375 617.26942383 -202.1171875 616.89306641 C-232.31492467 601.00835813 -258.54967277 579.43130487 -282.6875 555.5 C-283.56647949 554.63407227 -284.44545898 553.76814453 -285.35107422 552.87597656 C-291.33548389 546.89943964 -296.75225209 540.62880433 -302 534 C-302.82628906 532.98550781 -303.65257812 531.97101562 -304.50390625 530.92578125 C-317.25795714 514.73515498 -328.5000268 497.2828853 -338 479 C-338.5244873 478.00444092 -338.5244873 478.00444092 -339.05957031 476.98876953 C-360.98817956 435.21754339 -375.00241066 386.76355166 -375.203125 339.4296875 C-375.20882507 338.35034943 -375.21452515 337.27101135 -375.22039795 336.15896606 C-375.22978939 333.88154053 -375.23635843 331.60410176 -375.24023438 329.32666016 C-375.24983772 325.9323579 -375.28087587 322.53868934 -375.3125 319.14453125 C-375.41076684 299.02926432 -373.53869321 279.24482342 -369.3125 259.5625 C-369.05831299 258.36278564 -368.80412598 257.16307129 -368.54223633 255.92700195 C-353.58006471 187.76201716 -316.00468838 121.04738902 -262 76 C-261.46165527 75.54786133 -260.92331055 75.09572266 -260.36865234 74.62988281 C-239.62018168 57.26087688 -217.29914479 42.46385875 -192.80761719 30.86328125 C-191.07225609 30.03450804 -189.35209375 29.17413515 -187.6328125 28.3125 C-152.80616745 11.25455141 -113.56029485 1.42581132 -75 -2 C-73.8346875 -2.11085937 -72.669375 -2.22171875 -71.46875 -2.3359375 C-47.56086248 -4.226091 -23.73986393 -3.16738312 0 0 Z " fill="#FEFEFE" transform="translate(558,180)"/>
<path d="M0 0 C1.02222656 0.13390137 2.04445313 0.26780273 3.09765625 0.40576172 C60.82174322 8.24870832 117.49313485 32.47668411 162.41113281 69.6875 C163.95632086 70.9639184 165.52091392 72.21673114 167.0859375 73.46875 C175.48570411 80.313052 183.13952336 87.92805287 190.8125 95.5625 C191.61646713 96.35856659 191.61646713 96.35856659 192.43667603 97.17071533 C199.4265622 104.10746836 205.93117034 111.22556586 212 119 C212.62962646 119.80123291 213.25925293 120.60246582 213.90795898 121.42797852 C242.7277729 158.48202498 262.83809448 199.68816734 275 245 C275.20463867 245.75265137 275.40927734 246.50530273 275.62011719 247.28076172 C281.97495761 271.01991691 284.18723761 295.28957123 284.18530273 319.77734375 C284.18747055 322.83347915 284.20562604 325.88924152 284.22460938 328.9453125 C284.27762532 347.03971783 283.11844099 364.93563836 279.8125 382.75 C279.49212769 384.4983313 279.49212769 384.4983313 279.1652832 386.28198242 C267.89220593 445.54056552 240.59524858 499.67068341 201 545 C200.29875 545.81339844 199.5975 546.62679687 198.875 547.46484375 C194.09646659 552.9040456 189.04287284 558.05745501 183.9375 563.1875 C183.27661377 563.85305908 182.61572754 564.51861816 181.93481445 565.2043457 C121.85477135 625.09079838 36.40739568 657.32003262 -47.79321289 657.24658203 C-80.10287067 657.03638294 -112.21519093 651.74819793 -143 642 C-144.49081761 641.54665196 -145.98170195 641.09352329 -147.47265625 640.640625 C-165.67693178 634.97205896 -183.16196789 626.89926747 -200 618 C-200.69867188 617.63471191 -201.39734375 617.26942383 -202.1171875 616.89306641 C-232.31492467 601.00835813 -258.54967277 579.43130487 -282.6875 555.5 C-283.56647949 554.63407227 -284.44545898 553.76814453 -285.35107422 552.87597656 C-291.33548389 546.89943964 -296.75225209 540.62880433 -302 534 C-302.82628906 532.98550781 -303.65257812 531.97101562 -304.50390625 530.92578125 C-317.25795714 514.73515498 -328.5000268 497.2828853 -338 479 C-338.5244873 478.00444092 -338.5244873 478.00444092 -339.05957031 476.98876953 C-360.98817956 435.21754339 -375.00241066 386.76355166 -375.203125 339.4296875 C-375.20882507 338.35034943 -375.21452515 337.27101135 -375.22039795 336.15896606 C-375.22978939 333.88154053 -375.23635843 331.60410176 -375.24023438 329.32666016 C-375.24983772 325.9323579 -375.28087587 322.53868934 -375.3125 319.14453125 C-375.41076684 299.02926432 -373.53869321 279.24482342 -369.3125 259.5625 C-369.05831299 258.36278564 -368.80412598 257.16307129 -368.54223633 255.92700195 C-353.58006471 187.76201716 -316.00468838 121.04738902 -262 76 C-261.46165527 75.54786133 -260.92331055 75.09572266 -260.36865234 74.62988281 C-239.62018168 57.26087688 -217.29914479 42.46385875 -192.80761719 30.86328125 C-191.07225609 30.03450804 -189.35209375 29.17413515 -187.6328125 28.3125 C-152.80616745 11.25455141 -113.56029485 1.42581132 -75 -2 C-73.8346875 -2.11085937 -72.669375 -2.22171875 -71.46875 -2.3359375 C-47.56086248 -4.226091 -23.73986393 -3.16738312 0 0 Z M-91 62 C-92.67446129 62.28135639 -94.34894048 62.56260631 -96.0234375 62.84375 C-150.22122509 72.41554781 -197.70467929 100.18658956 -237 138 C-237.79148437 138.75023437 -238.58296875 139.50046875 -239.3984375 140.2734375 C-244.75143809 145.45717325 -249.37004779 151.17135467 -254 157 C-254.88756888 158.09672008 -255.77560441 159.19306265 -256.6640625 160.2890625 C-267.1912473 173.36552305 -276.10140517 187.1946762 -284 202 C-284.33741211 202.6295459 -284.67482422 203.2590918 -285.02246094 203.90771484 C-298.93644553 230.11351704 -307.45639094 257.72400151 -312 287 C-312.18691406 288.19882812 -312.37382812 289.39765625 -312.56640625 290.6328125 C-317.08791368 325.7457801 -313.74919019 361.85951817 -305 396 C-304.70270996 397.19423584 -304.70270996 397.19423584 -304.39941406 398.41259766 C-295.57471923 433.35744539 -277.64605876 466.15064657 -255 494 C-254.57348145 494.52948242 -254.14696289 495.05896484 -253.70751953 495.60449219 C-241.71419565 510.3878837 -228.17248157 524.47075869 -213 536 C-212.04867187 536.76828125 -211.09734375 537.5365625 -210.1171875 538.328125 C-156.57017864 581.00468845 -85.6161537 600.90341616 -17.75 593.8125 C43.74861158 586.80156417 98.53324989 559.72920208 143 517 C143.73259033 516.30028076 143.73259033 516.30028076 144.47998047 515.58642578 C151.21232352 509.12545699 157.26148615 502.35045594 163 495 C163.72292236 494.09169434 163.72292236 494.09169434 164.46044922 493.16503906 C209.11683125 437.02797297 228.73253197 365.79042233 221.05029297 294.50439453 C215.19181399 247.62715906 197.92709704 202.51387742 169 165 C168.03513672 163.74703125 168.03513672 163.74703125 167.05078125 162.46875 C162.98506115 157.29274484 158.71034189 152.34908773 154.26953125 147.4921875 C152.79040137 145.86794504 151.32841881 144.22786784 149.88671875 142.5703125 C139.7863997 131.01126364 128.25879661 121.18730211 116 112 C115.42636719 111.56945312 114.85273437 111.13890625 114.26171875 110.6953125 C105.52629785 104.18811409 96.49217873 98.34084558 87 93 C86.23864746 92.57074219 85.47729492 92.14148438 84.69287109 91.69921875 C62.52932948 79.34212063 39.63730079 70.94112936 15 65 C14.29343262 64.82388184 13.58686523 64.64776367 12.85888672 64.46630859 C-5.8017901 59.83471965 -24.7168705 58.46914213 -43.875 58.625 C-45.37821808 58.63098206 -45.37821808 58.63098206 -46.9118042 58.63708496 C-61.81412448 58.7064988 -76.31370289 59.29048037 -91 62 Z " fill="#19A8FE" transform="translate(558,180)"/>
<path d="M0 0 C5.50411071 3.73143448 9.14337008 9.29699763 10.76592159 15.76177502 C11.25985585 18.89811259 11.31810571 21.87397752 11.31556702 25.04988098 C11.31642144 25.69527083 11.31727587 26.34066067 11.31815618 27.00560778 C11.31979819 29.15977297 11.31431064 31.31385961 11.30883789 33.46801758 C11.30855572 35.01553343 11.30871434 36.56304941 11.3092804 38.11056519 C11.30956719 42.30642803 11.30368945 46.50226225 11.29670644 50.69811845 C11.29045334 55.0850143 11.28986755 59.47191081 11.28868103 63.85881042 C11.28557349 72.16369457 11.27736787 80.46856554 11.26733154 88.77344388 C11.25615249 98.22924269 11.25065543 107.68504212 11.24563611 117.14084589 C11.23518479 136.58999848 11.2175965 156.03913881 11.1953125 175.48828125 C12.41838136 175.48413318 12.41838136 175.48413318 13.66615868 175.47990131 C33.53122276 175.41356925 53.39626767 175.36396554 73.2614193 175.33284473 C82.86816772 175.31739387 92.47484209 175.29633847 102.08154297 175.26196289 C110.45741407 175.23200594 118.83323153 175.21269331 127.20915473 175.20601577 C131.64172549 175.20211416 136.07414282 175.19298212 140.50666428 175.17109108 C144.6845012 175.15062635 148.86212244 175.1444675 153.04000473 175.14895821 C154.56774571 175.14813745 156.09549442 175.1422315 157.62319183 175.13066483 C168.89983594 175.04952237 179.05097653 175.34120379 187.5 183.55078125 C192.69989184 189.49351478 193.82352244 194.8009119 193.5078125 202.6640625 C192.6829947 210.11835337 188.72241553 215.65610066 183.1953125 220.48828125 C174.12983626 225.66644809 163.92941242 225.05609097 153.84741211 225.00585938 C152.00981595 225.01128806 150.17222416 225.01841489 148.3346405 225.02709961 C143.37185905 225.04524582 138.40941235 225.03830188 133.44662547 225.02558327 C128.23829841 225.01541186 123.0299988 225.02486026 117.82167053 225.03112793 C109.07857144 225.03839166 100.3356078 225.02884944 91.5925293 225.00976562 C81.50120697 224.98799257 71.41020789 224.9950566 61.31889337 225.01707125 C52.63490732 225.03525346 43.95101828 225.03776998 35.26701933 225.02731657 C30.08903525 225.02109803 24.91120287 225.02020092 19.73322868 225.03346252 C14.86487717 225.04506176 9.99694045 225.03692112 5.1286335 225.0138855 C3.34773063 225.00862041 1.56679253 225.01007427 -0.21409607 225.01893616 C-11.31220967 225.06904819 -21.06562889 224.94110503 -29.7421875 217.17578125 C-34.32672293 212.52366053 -36.12920297 207.03369112 -36.21524191 200.60609502 C-36.20725002 199.52631854 -36.20725002 199.52631854 -36.19909668 198.42472839 C-36.20518778 197.64176102 -36.21127889 196.85879366 -36.21755457 196.0521 C-36.2341264 193.44368173 -36.22941715 190.83575474 -36.22460938 188.22729492 C-36.23195315 186.3508809 -36.24054028 184.47447138 -36.25027466 182.59806824 C-36.27246839 177.51115658 -36.27542236 172.42440703 -36.27352715 167.3374536 C-36.27340733 163.08563374 -36.28197609 158.83384808 -36.29030466 154.58203775 C-36.30953154 144.54742572 -36.31242536 134.51289688 -36.30566406 124.47827148 C-36.29902565 114.13933562 -36.32188136 103.80075673 -36.35897779 93.46189326 C-36.38970593 84.57417505 -36.40103138 75.68657149 -36.39714098 66.79880124 C-36.39507648 61.49550548 -36.40050643 56.19248746 -36.42503357 50.88924217 C-36.44734914 45.89943 -36.44538278 40.91019672 -36.42510605 35.92038155 C-36.42170437 34.09431887 -36.42674862 32.26821686 -36.44108963 30.44220734 C-36.57674177 11.88182817 -36.57674177 11.88182817 -30.8046875 4.48828125 C-21.50457377 -4.25866769 -11.39150315 -6.33853232 0 0 Z " fill="#10508B" transform="translate(524.8046875,305.51171875)"/>
<path d="M0 0 C2.8262536 2.64916532 4.84917293 5.1366758 6.69921875 8.53515625 C7.42274536 9.85749268 7.42274536 9.85749268 8.16088867 11.20654297 C8.66467041 12.14900879 9.16845215 13.09147461 9.6875 14.0625 C10.21641846 15.04621582 10.74533691 16.02993164 11.2902832 17.04345703 C37.61686914 66.41922948 37.61686914 66.41922948 37 84 C35.0234375 82.7578125 35.0234375 82.7578125 33 81 C32.6015625 79.1171875 32.6015625 79.1171875 32.625 76.875 C32.18292358 68.84593629 28.82399974 61.44430511 26 54 C25.01 54.495 25.01 54.495 24 55 C23.90332031 53.84757812 23.80664062 52.69515625 23.70703125 51.5078125 C23.12051738 46.89066184 21.63185949 43.07713956 19.6875 38.875 C19.34501221 38.11872314 19.00252441 37.36244629 18.6496582 36.58325195 C13.54539094 25.56021854 7.76994301 14.64072261 1.33520508 4.33325195 C0 2 0 2 0 0 Z " fill="#0D92FE" transform="translate(792,332)"/>
<path d="M0 0 C1.81037104 5.94836198 -1.06430002 11.30187761 -3.203125 16.8671875 C-4.57597506 20.5415803 -5.78309361 24.27160594 -7 28 C-7.66 28 -8.32 28 -9 28 C-9.25265625 28.83015625 -9.5053125 29.6603125 -9.765625 30.515625 C-11.15387361 34.4343521 -12.87370323 38.04702754 -14.75 41.75 C-15.10344482 42.45302246 -15.45688965 43.15604492 -15.82104492 43.88037109 C-18.26984632 48.69835606 -20.90288365 53.35818452 -23.7578125 57.94921875 C-25.15455962 60.18717934 -25.15455962 60.18717934 -26.6875 63.4375 C-27.90079033 65.80630493 -28.99561511 67.28195581 -31 69 C-31.66 68.67 -32.32 68.34 -33 68 C-32.31035156 66.89785156 -31.62070312 65.79570313 -30.91015625 64.66015625 C-18.02109028 43.92456847 -8.51732924 22.88688794 0 0 Z " fill="#0C8DFE" transform="translate(768,587)"/>
<path d="M0 0 C0.66 0.66 1.32 1.32 2 2 C-1.09694185 5.18479836 -4.2342588 8.04041601 -7.75 10.75 C-13.14500617 15.11317439 -18.08263642 19.85765057 -23 24.75 C-23.74217773 25.4831543 -24.48435547 26.21630859 -25.24902344 26.97167969 C-28.72532185 30.46714006 -31.5931795 33.66458717 -34 38 C-35.88931547 39.86173422 -37.89871238 41.36566518 -40 43 C-40.495 41.515 -40.495 41.515 -41 40 C-40.57589844 39.5875 -40.15179688 39.175 -39.71484375 38.75 C-36.61832867 35.70112362 -33.62972143 32.62238824 -30.8125 29.3125 C-23.55183126 20.90713124 -15.4932707 13.14744194 -7 6 C-5.66609556 4.85483156 -4.33273732 3.70902651 -3 2.5625 C-2.01 1.716875 -1.02 0.87125 0 0 Z " fill="#20BCFE" transform="translate(303,250)"/>
<path d="M0 0 C1.16526144 3.40509871 0.83422031 5.34880207 -0.3359375 8.71875 C-0.81353516 10.10404907 -0.81353516 10.10404907 -1.30078125 11.51733398 C-1.65527344 12.50161377 -2.00976562 13.48589355 -2.375 14.5 C-2.73207031 15.51070557 -3.08914063 16.52141113 -3.45703125 17.56274414 C-7.08881702 27.62791166 -11.4260744 37.33334704 -16 47 C-17.7363551 41.79093469 -15.12807378 37.81129724 -13 33 C-12.34 33 -11.68 33 -11 33 C-10.87753906 32.14148438 -10.75507812 31.28296875 -10.62890625 30.3984375 C-9.99872884 26.99313102 -9.06437721 23.89657899 -7.9375 20.625 C-7.57527344 19.56539062 -7.21304688 18.50578125 -6.83984375 17.4140625 C-6.56269531 16.61742187 -6.28554688 15.82078125 -6 15 C-5.34 15 -4.68 15 -4 15 C-3.93941406 14.40832031 -3.87882813 13.81664062 -3.81640625 13.20703125 C-2.83794006 3.97934245 -2.83794006 3.97934245 -2 1 C-1.34 0.67 -0.68 0.34 0 0 Z " fill="#0D8DFD" transform="translate(827,599)"/>
<path d="M0 0 C0.33 0 0.66 0 1 0 C1.05534912 0.56509277 1.11069824 1.13018555 1.16772461 1.71240234 C1.42024372 4.26702332 1.67879723 6.82099815 1.9375 9.375 C2.02451172 10.26445312 2.11152344 11.15390625 2.20117188 12.0703125 C2.28818359 12.92109375 2.37519531 13.771875 2.46484375 14.6484375 C2.543396 15.43395996 2.62194824 16.21948242 2.70288086 17.02880859 C2.90696298 19.07134803 2.90696298 19.07134803 4 21 C4.09699022 22.94730751 4.13076186 24.8979359 4.1328125 26.84765625 C4.13410156 28.00974609 4.13539063 29.17183594 4.13671875 30.36914062 C4.13285156 31.58794922 4.12898437 32.80675781 4.125 34.0625 C4.12886719 35.28517578 4.13273438 36.50785156 4.13671875 37.76757812 C4.13542969 38.92837891 4.13414062 40.08917969 4.1328125 41.28515625 C4.13168457 42.35644775 4.13055664 43.42773926 4.12939453 44.53149414 C4 47 4 47 3 48 C2.63239269 50.32817964 2.29758419 52.6618385 2 55 C1.67 55 1.34 55 1 55 C0.85505641 49.57810729 0.71276924 44.15615308 0.57275391 38.73413086 C0.52494947 36.89654746 0.47646755 35.05898154 0.42724609 33.22143555 C0.13105137 22.14435717 -0.07653356 11.08142112 0 0 Z " fill="#068DFD" transform="translate(779,473)"/>
<path d="M0 0 C4.05885418 1.40414415 6.95512415 3.3406924 10.3125 6 C19.56748091 13.08405946 29.50715126 19.23796223 39.76171875 24.7734375 C44.56854199 27.40754308 49.27359247 30.22493501 54 33 C51 34 51 34 48.84960938 33.12646484 C48.02267578 32.65934082 47.19574219 32.1922168 46.34375 31.7109375 C45.41256348 31.18773926 44.48137695 30.66454102 43.52197266 30.12548828 C42.52472168 29.54782715 41.5274707 28.97016602 40.5 28.375 C39.47567871 27.78831543 38.45135742 27.20163086 37.39599609 26.59716797 C24.40427661 19.05235611 11.47861632 10.74218535 0 1 C0 0.67 0 0.34 0 0 Z " fill="#0D94FE" transform="translate(312,767)"/>
<path d="M0 0 C0 0.66 0 1.32 0 2 C-0.66 2 -1.32 2 -2 2 C-2.226875 2.5775 -2.45375 3.155 -2.6875 3.75 C-4.33783478 6.57914534 -6.43258577 7.98274596 -9 10 C-9.598125 10.763125 -10.19625 11.52625 -10.8125 12.3125 C-12.74796573 14.6903579 -14.61531028 16.46320387 -16.9375 18.4375 C-20.3905455 21.38065654 -23.21143737 24.42715413 -26 28 C-27.32 27.67 -28.64 27.34 -30 27 C-26.57519169 23.47886896 -23.12112553 20.05522146 -19.375 16.875 C-14.78057274 12.94079556 -10.58974936 8.61614424 -6.39208984 4.26708984 C-2.21485975 0 -2.21485975 0 0 0 Z " fill="#0A8CFE" transform="translate(714,685)"/>
<path d="M0 0 C0.33 0.66 0.66 1.32 1 2 C-0.20938366 4.66185951 -1.47927567 7.18721196 -2.875 9.75 C-3.28049072 10.50410156 -3.68598145 11.25820313 -4.10375977 12.03515625 C-6.8820132 17.1303157 -9.8153364 22.10830919 -12.9375 27 C-13.31438965 27.59264648 -13.6912793 28.18529297 -14.07958984 28.79589844 C-16.74287263 32.87143631 -16.74287263 32.87143631 -19 34 C-16.67398434 27.79729158 -13.75916165 21.46787149 -10 16 C-9.34 16 -8.68 16 -8 16 C-7.79375 15.21625 -7.5875 14.4325 -7.375 13.625 C-5.50965127 8.70726245 -2.79134805 4.44157897 0 0 Z " fill="#0B8BFD" transform="translate(805,654)"/>
<path d="M0 0 C-0.969375 0.28875 -1.93875 0.5775 -2.9375 0.875 C-6.10664203 1.64214682 -6.10664203 1.64214682 -7 4 C-7.99 3.67 -8.98 3.34 -10 3 C-12.42007631 3.3212203 -12.42007631 3.3212203 -15.0625 3.9375 C-20.4462392 5.00706952 -25.52795125 5.21365917 -31 5 C-26.13861822 2.28999287 -20.92658439 1.73923482 -15.5 0.8125 C-14.45457031 0.62236328 -13.40914062 0.43222656 -12.33203125 0.23632812 C-11.32527344 0.06166016 -10.31851563 -0.11300781 -9.28125 -0.29296875 C-8.36408203 -0.4530542 -7.44691406 -0.61313965 -6.50195312 -0.77807617 C-4.02814533 -0.9975035 -2.34388289 -0.76381798 0 0 Z " fill="#1791FD" transform="translate(574,769)"/>
<path d="M0 0 C1.98 0 3.96 0 6 0 C6 0.66 6 1.32 6 2 C9.3 2.66 12.6 3.32 16 4 C16 4.66 16 5.32 16 6 C16.97839844 6.18175781 16.97839844 6.18175781 17.9765625 6.3671875 C22.78646342 7.28943989 27.39025465 8.30167277 32 10 C32 10.33 32 10.66 32 11 C25.36521174 10.42306189 19.48249231 8.75710376 13.1875 6.625 C11.77694336 6.16867187 11.77694336 6.16867187 10.33789062 5.703125 C9.43619141 5.40148437 8.53449219 5.09984375 7.60546875 4.7890625 C6.79231201 4.51787598 5.97915527 4.24668945 5.14135742 3.96728516 C2.88806537 2.94943735 1.61491232 1.84942426 0 0 Z " fill="#0F92FD" transform="translate(394,813)"/>
<path d="M0 0 C0 0.99 0 1.98 0 3 C-2.89388288 5.73311161 -5.13124698 7.19956834 -9 8 C-9.66 8.66 -10.32 9.32 -11 10 C-12.99117408 10.69258229 -14.9921136 11.35747635 -17 12 C-19.59473022 13.15321343 -20.9713088 13.9713088 -23 16 C-23.99 16 -24.98 16 -26 16 C-26 15.34 -26 14.68 -26 14 C-25.39003174 13.68248779 -24.78006348 13.36497559 -24.15161133 13.0378418 C-21.37107439 11.58932075 -18.59177876 10.13843355 -15.8125 8.6875 C-14.85279297 8.18798828 -13.89308594 7.68847656 -12.90429688 7.17382812 C-11.97294922 6.68720703 -11.04160156 6.20058594 -10.08203125 5.69921875 C-9.22843018 5.25408936 -8.3748291 4.80895996 -7.49536133 4.3503418 C-4.94901585 2.9724104 -2.47139768 1.50761064 0 0 Z " fill="#0A8CFE" transform="translate(650,736)"/>
<path d="M0 0 C7.13007826 -0.66019243 12.02468468 1.06102277 18 5 C21.01809913 7.75076168 23.69921478 11.09764435 25 15 C24.70763193 16.34291094 24.37829212 17.67871882 24 19 C23.69707031 18.32453125 23.39414062 17.6490625 23.08203125 16.953125 C22.66308594 16.06109375 22.24414062 15.1690625 21.8125 14.25 C21.20341797 12.92742187 21.20341797 12.92742187 20.58203125 11.578125 C18.01821576 7.40005531 15.40410717 5.41590852 10.703125 4.0234375 C9.56359375 3.80945313 8.4240625 3.59546875 7.25 3.375 C5.15456141 2.97564511 3.06598507 2.53108656 1 2 C0.67 1.34 0.34 0.68 0 0 Z " fill="#082665" transform="translate(509,302)"/>
<path d="M0 0 C0.33 0 0.66 0 1 0 C0.64234286 8.76260002 -1.38045551 16.65400942 -4 25 C-4.33 25 -4.66 25 -5 25 C-5.25055928 18.61073826 -5.25055928 18.61073826 -4 15.5625 C-2.9922577 12.98016036 -2.94627121 11.70358271 -3.0625 9 C-3.17711676 5.21764696 -2.3770942 3.04268058 0 0 Z " fill="#0B8DFD" transform="translate(835,566)"/>
<path d="M0 0 C5.76065111 0.67941234 10.95115325 2.60883195 16.375 4.5625 C17.30183594 4.89185547 18.22867187 5.22121094 19.18359375 5.56054688 C21.45735647 6.3692563 23.7293813 7.18251358 26 8 C26 8.33 26 8.66 26 9 C19.94683675 9.63717508 15.42623122 7.32196091 10 5 C7.34193778 3.97535988 4.671452 2.98942667 2 2 C1.67 2.66 1.34 3.32 1 4 C0.67 2.68 0.34 1.36 0 0 Z " fill="#0B91FD" transform="translate(412,756)"/>
<path d="M0 0 C0.33 0 0.66 0 1 0 C1.5338079 9.33175289 -0.08718365 17.92550815 -2 27 C-2.33 27 -2.66 27 -3 27 C-3.02685938 24.85423363 -3.04633088 22.70837355 -3.0625 20.5625 C-3.07410156 19.36753906 -3.08570313 18.17257812 -3.09765625 16.94140625 C-3 14 -3 14 -2 13 C-1.95907063 10.66702567 -1.95758277 8.33294775 -2 6 C-1.34 6 -0.68 6 0 6 C0 4.02 0 2.04 0 0 Z " fill="#0A8BFE" transform="translate(839,538)"/>
<path d="M0 0 C2.475 0.495 2.475 0.495 5 1 C4 3 4 3 0.54296875 4.32421875 C-0.90626007 4.78685205 -2.35824486 5.24091771 -3.8125 5.6875 C-4.53759766 5.92533203 -5.26269531 6.16316406 -6.00976562 6.40820312 C-9.76635936 7.58020538 -12.2477612 8.18998829 -16 7 C-15.67 6.34 -15.34 5.68 -15 5 C-12.66842508 4.65458149 -10.33491639 4.32205743 -8 4 C-7.01 3.34 -6.02 2.68 -5 2 C-3.68 2 -2.36 2 -1 2 C-0.67 1.34 -0.34 0.68 0 0 Z " fill="#0D8EFD" transform="translate(616,816)"/>
<path d="M0 0 C0.66 0.33 1.32 0.66 2 1 C-15.5483871 14 -15.5483871 14 -20 14 C-19.67 13.01 -19.34 12.02 -19 11 C-18.34 11 -17.68 11 -17 11 C-16.67 10.34 -16.34 9.68 -16 9 C-14.7934375 8.6596875 -14.7934375 8.6596875 -13.5625 8.3125 C-8.43381194 6.42298335 -4.37228489 3.23168883 0 0 Z " fill="#0C8CFE" transform="translate(700,775)"/>
<path d="M0 0 C0.66 0 1.32 0 2 0 C1.50782506 4.3462833 0.2505722 6.18482491 -2.9375 9.125 C-5.36150932 11.38623556 -7.14627924 13.21941886 -9 16 C-9.99 15.67 -10.98 15.34 -12 15 C-11.46890625 14.41992188 -10.9378125 13.83984375 -10.390625 13.2421875 C-5.68611061 8.09067812 -5.68611061 8.09067812 -1.625 2.4375 C-0.820625 1.2309375 -0.820625 1.2309375 0 0 Z " fill="#1091FE" transform="translate(726,667)"/>
<path d="M0 0 C0.99 0 1.98 0 3 0 C1.6489735 3.01015294 0.13664313 5.11967466 -2.1875 7.453125 C-2.80367187 8.071875 -3.41984375 8.690625 -4.0546875 9.328125 C-5.01761719 10.27945313 -5.01761719 10.27945313 -6 11.25 C-6.64195312 11.8996875 -7.28390625 12.549375 -7.9453125 13.21875 C-8.86957031 14.13914062 -8.86957031 14.13914062 -9.8125 15.078125 C-10.37582031 15.63918945 -10.93914063 16.20025391 -11.51953125 16.77832031 C-13 18 -13 18 -15 18 C-15 17.01 -15 16.02 -15 15 C-13.35729826 13.96110214 -11.68483744 12.96907202 -10 12 C-8.18247255 10.36289863 -6.41205127 8.67227084 -4.6875 6.9375 C-3.36298828 5.62072266 -3.36298828 5.62072266 -2.01171875 4.27734375 C0.22068224 2.25661842 0.22068224 2.25661842 0 0 Z " fill="#0788FE" transform="translate(751,729)"/>
<path d="M0 0 C0.99 0.33 1.98 0.66 3 1 C2.34 3.64 1.68 6.28 1 9 C0.34 9 -0.32 9 -1 9 C-1.12375 9.78375 -1.2475 10.5675 -1.375 11.375 C-2 14 -2 14 -4 16 C-5 14 -5 14 -4.00390625 10.7421875 C-3.53110016 9.4502948 -3.05028031 8.16131362 -2.5625 6.875 C-2.31951172 6.21628906 -2.07652344 5.55757813 -1.82617188 4.87890625 C-1.22421679 3.25008662 -0.61297588 1.62470425 0 0 Z " fill="#20BCFE" transform="translate(204,388)"/>
<path d="M0 0 C4.72843614 1.57313172 8.3433843 4.20641235 12.3125 7.125 C12.95767578 7.59292969 13.60285156 8.06085937 14.26757812 8.54296875 C15.84848894 9.6905929 17.42472301 10.84465477 19 12 C14.37637152 12 11.52763213 9.177931 7.7890625 6.62890625 C5.08557542 5.04997892 3.07835605 4.39738778 0 4 C0 2.68 0 1.36 0 0 Z " fill="#1097FE" transform="translate(352,722)"/>
<path d="M0 0 C0 5.28 0 10.56 0 16 C-0.66 16.33 -1.32 16.66 -2 17 C-2.85298376 13.32612505 -3.10789471 9.9552607 -3.0625 6.1875 C-3.05347656 5.21167969 -3.04445312 4.23585938 -3.03515625 3.23046875 C-3.02355469 2.49441406 -3.01195312 1.75835937 -3 1 C-1 0 -1 0 0 0 Z " fill="#2FBFFE" transform="translate(186,478)"/>
<path d="M0 0 C0.515625 0.2475 1.03125 0.495 1.5625 0.75 C0.758125 1.03875 -0.04625 1.3275 -0.875 1.625 C-3.5701468 2.48262568 -3.5701468 2.48262568 -4.4375 4.75 C-5.55125 5.059375 -5.55125 5.059375 -6.6875 5.375 C-10.77034126 7.41642063 -12.29749605 10.83424809 -14.4375 14.75 C-14.7675 13.76 -15.0975 12.77 -15.4375 11.75 C-12.57385412 6.12663088 -6.8992817 -0.70761864 0 0 Z " fill="#0B2B6A" transform="translate(506.4375,303.25)"/>
<path d="M0 0 C0.99 0 1.98 0 3 0 C1.34482973 3.58620225 -0.66455721 6.81530529 -3 10 C-3.99 10.33 -4.98 10.66 -6 11 C-6 7.45983707 -5.26641433 6.58944395 -3.1875 3.8125 C-2.66542969 3.09707031 -2.14335937 2.38164062 -1.60546875 1.64453125 C-0.81076172 0.83048828 -0.81076172 0.83048828 0 0 Z " fill="#25BEFE" transform="translate(257,296)"/>
<path d="M0 0 C0 0.99 0 1.98 0 3 C-1.41396902 3.50757862 -2.83131729 4.00574925 -4.25 4.5 C-5.43335938 4.91765625 -5.43335938 4.91765625 -6.640625 5.34375 C-9 6 -9 6 -13 6 C-13 5.34 -13 4.68 -13 4 C-11.2097939 3.32942113 -9.41778511 2.6636531 -7.625 2 C-6.62726563 1.62875 -5.62953125 1.2575 -4.6015625 0.875 C-2 0 -2 0 0 0 Z " fill="#21B9FD" transform="translate(408,194)"/>
<path d="M0 0 C0.66 0.66 1.32 1.32 2 2 C1.71125 2.55429687 1.4225 3.10859375 1.125 3.6796875 C0.75375 4.40414063 0.3825 5.12859375 0 5.875 C-0.37125 6.59429687 -0.7425 7.31359375 -1.125 8.0546875 C-2.13673746 9.94848977 -2.13673746 9.94848977 -2 12 C-2.99 12.33 -3.98 12.66 -5 13 C-6 10 -6 10 -4.78515625 7.51953125 C-4.21667969 6.62621094 -3.64820313 5.73289062 -3.0625 4.8125 C-2.49660156 3.91144531 -1.93070313 3.01039063 -1.34765625 2.08203125 C-0.90292969 1.39496094 -0.45820313 0.70789063 0 0 Z " fill="#21BDFE" transform="translate(226,342)"/>
<path d="M0 0 C0.66 0.33 1.32 0.66 2 1 C0.23977508 2.53309913 -1.53353463 4.05118701 -3.3125 5.5625 C-4.79169922 6.83287109 -4.79169922 6.83287109 -6.30078125 8.12890625 C-7.19152344 8.74636719 -8.08226562 9.36382813 -9 10 C-9.99 9.67 -10.98 9.34 -12 9 C-10.56351736 7.87370125 -9.12577415 6.7490101 -7.6875 5.625 C-6.88699219 4.99851562 -6.08648438 4.37203125 -5.26171875 3.7265625 C-3.55336788 2.42243282 -1.78827274 1.19218183 0 0 Z " fill="#0E8DFE" transform="translate(672,721)"/>
<path d="M0 0 C8.57142857 -0.28571429 8.57142857 -0.28571429 12 2 C6.71502591 3.76165803 6.71502591 3.76165803 4 4 C1.5 2.125 1.5 2.125 0 0 Z " fill="#0C92FD" transform="translate(470,772)"/>
<path d="M0 0 C0.99 0.99 1.98 1.98 3 3 C2.01 5.97 1.02 8.94 0 12 C-2.61577816 6.76844369 -1.6207859 5.40261966 0 0 Z " fill="#27BEFE" transform="translate(193,422)"/>
<path d="M0 0 C0.33 0 0.66 0 1 0 C1.59720137 5.82271337 -0.471757 9.9209404 -3 15 C-3.33 15 -3.66 15 -4 15 C-3.50341703 9.33895411 -2.45489316 5.12325529 0 0 Z " fill="#20B8FE" transform="translate(267,390)"/>
<path d="M0 0 C0.99 0.33 1.98 0.66 3 1 C-0.96 4.465 -0.96 4.465 -5 8 C-5.33 7.01 -5.66 6.02 -6 5 C-1.60546875 0.99609375 -1.60546875 0.99609375 0 0 Z " fill="#0D91FE" transform="translate(681,714)"/>
<path d="M0 0 C1.98120645 2.97180967 2.65962579 4.51116436 3 8 C2.0625 10.3125 2.0625 10.3125 1 12 C-1 10 -1 10 -1.23046875 8.125 C-1.21628906 7.42375 -1.20210937 6.7225 -1.1875 6 C-1.18105469 5.29875 -1.17460937 4.5975 -1.16796875 3.875 C-1 2 -1 2 0 0 Z " fill="#2ABCFE" transform="translate(184,521)"/>
<path d="M0 0 C1.258125 -0.020625 2.51625 -0.04125 3.8125 -0.0625 C4.52019531 -0.07410156 5.22789062 -0.08570313 5.95703125 -0.09765625 C8 0 8 0 11 1 C11 1.66 11 2.32 11 3 C3.57142857 3.28571429 3.57142857 3.28571429 0 1 C0 0.67 0 0.34 0 0 Z " fill="#09336F" transform="translate(509,302)"/>
<path d="M0 0 C0.33 0 0.66 0 1 0 C2.12029814 5.48946087 1.79217969 8.83430559 0 14 C-0.66 13.67 -1.32 13.34 -2 13 C-1.34 8.71 -0.68 4.42 0 0 Z " fill="#1FBAFE" transform="translate(190,434)"/>
<path d="M0 0 C0.89332031 0.30164063 1.78664063 0.60328125 2.70703125 0.9140625 C3.60808594 1.21054687 4.50914062 1.50703125 5.4375 1.8125 C6.46810547 2.17214844 6.46810547 2.17214844 7.51953125 2.5390625 C7.51953125 2.8690625 7.51953125 3.1990625 7.51953125 3.5390625 C2.69592936 3.73200658 -0.97693613 3.29653864 -5.48046875 1.5390625 C-2.48046875 -0.4609375 -2.48046875 -0.4609375 0 0 Z " fill="#1593FD" transform="translate(444.48046875,826.4609375)"/>
<path d="M0 0 C0.33 0 0.66 0 1 0 C1.21192221 5.19209404 0.5912689 9.126739 -1 14 C-1.33 14 -1.66 14 -2 14 C-2.1799928 8.78020872 -1.97094808 4.92737019 0 0 Z " fill="#0B8FFE" transform="translate(772,573)"/>
<path d="M0 0 C0.99 0.66 1.98 1.32 3 2 C0.25 3.625 0.25 3.625 -3 5 C-5.375 4.1875 -5.375 4.1875 -7 3 C-3.6875 1.375 -3.6875 1.375 0 0 Z " fill="#26BBFD" transform="translate(367,210)"/>
<path d="M0 0 C0.33 0 0.66 0 1 0 C0.56179109 4.55737263 0.14958831 7.57653445 -3 11 C-4.24546405 8.50907189 -3.7767578 7.58919267 -3 5 C-2.34 5 -1.68 5 -1 5 C-0.67 3.35 -0.34 1.7 0 0 Z " fill="#1A95FE" transform="translate(809,644)"/>
<path d="M0 0 C1.32 0.33 2.64 0.66 4 1 C4 1.66 4 2.32 4 3 C2.04072937 4.7143618 0.04119788 6.38405168 -2 8 C-2.66 7.67 -3.32 7.34 -4 7 C-3.525625 6.5875 -3.05125 6.175 -2.5625 5.75 C-0.83733482 3.817815 -0.43415125 2.51807725 0 0 Z " fill="#0C8BFE" transform="translate(730,748)"/>
<path d="M0 0 C0.66 0.33 1.32 0.66 2 1 C1.67 1.99 1.34 2.98 1 4 C-2.0625 5.1875 -2.0625 5.1875 -5 6 C-5 5.01 -5 4.02 -5 3 C-2.625 1.25 -2.625 1.25 0 0 Z " fill="#24BDFE" transform="translate(334,228)"/>
<path d="M0 0 C1.65 0 3.3 0 5 0 C3.35 1.65 1.7 3.3 0 5 C-0.66 4.67 -1.32 4.34 -2 4 C-1.34 2.68 -0.68 1.36 0 0 Z " fill="#0D8EFE" transform="translate(713,763)"/>
<path d="M0 0 C0 4.38968456 -2.12805101 5.76905739 -5 9 C-5 5.84012675 -4.61785127 4.63965207 -3 2 C-2.01 1.34 -1.02 0.68 0 0 Z " fill="#098AFD" transform="translate(773,705)"/>
<path d="M0 0 C0.66 0 1.32 0 2 0 C0.7508258 3.45925163 -0.67527795 6.14693203 -3 9 C-3.66 8.67 -4.32 8.34 -5 8 C-4.360625 7.05125 -3.72125 6.1025 -3.0625 5.125 C-1.07379437 2.24712173 -1.07379437 2.24712173 0 0 Z " fill="#098BFE" transform="translate(779,695)"/>
<path d="M0 0 C2.39763185 2.39763185 2.34280586 3.33273498 2.625 6.625 C2.69976563 7.44226563 2.77453125 8.25953125 2.8515625 9.1015625 C2.90054688 9.72804688 2.94953125 10.35453125 3 11 C-1.13333333 4.8 -1.13333333 4.8 -0.625 1.75 C-0.41875 1.1725 -0.2125 0.595 0 0 Z " fill="#0F90FD" transform="translate(830,419)"/>
<path d="M0 0 C0.66 0 1.32 0 2 0 C0.55746343 3.36591866 -1.33264727 5.51047079 -4 8 C-3.40312566 4.65750371 -2.26396123 2.53563658 0 0 Z " fill="#0A8EFE" transform="translate(734,657)"/>
<path d="M0 0 C0.33 0.66 0.66 1.32 1 2 C0.06421005 4.35981813 -0.93347808 6.69631264 -2 9 C-2.66 8.34 -3.32 7.68 -4 7 C-2.68 4.69 -1.36 2.38 0 0 Z " fill="#1ABAFE" transform="translate(214,366)"/>
</svg>
